<?xml version="1.0" encoding="UTF-8"?>
<svg version="1.1" xmlns="http://www.w3.org/2000/svg" width="734" height="734">
<path d="M0 0 C1.1104216 -0.00701431 2.2208432 -0.01402863 3.36491394 -0.02125549 C6.9308176 -0.03867551 10.49655534 -0.04510815 14.0625 -0.046875 C15.88728378 -0.04788712 15.88728378 -0.04788712 17.74893188 -0.04891968 C35.05820502 -0.03363372 51.96064914 0.30431278 69.0625 3.203125 C70.12114258 3.36941406 71.17978516 3.53570312 72.27050781 3.70703125 C137.26723466 13.99675054 198.73600946 41.38843146 249.20849609 83.65771484 C250.90377106 85.07081605 252.61460331 86.46165257 254.33203125 87.84765625 C262.46754638 94.50948939 269.92684973 101.85650371 277.375 109.265625 C277.88724121 109.77259918 278.39948242 110.27957336 278.92724609 110.8019104 C285.77958063 117.59969776 292.04034886 124.64598928 298.0625 132.203125 C299.08661459 133.41640628 300.11586893 134.62538558 301.15234375 135.828125 C350.79340855 194.22887154 381.94109664 275.45416507 382.265625 352.140625 C382.27263931 353.2510466 382.27965363 354.3614682 382.28688049 355.50553894 C382.30430051 359.0714426 382.31073315 362.63718034 382.3125 366.203125 C382.31351212 368.02790878 382.31351212 368.02790878 382.31454468 369.88955688 C382.29925872 387.19883002 381.96131222 404.10127414 379.0625 421.203125 C378.81306641 422.79108887 378.81306641 422.79108887 378.55859375 424.41113281 C368.26887446 489.40785966 340.87719354 550.87663446 298.60791016 601.34912109 C297.19480895 603.04439606 295.80397243 604.75522831 294.41796875 606.47265625 C287.75613561 614.60817138 280.40912129 622.06747473 273 629.515625 C272.49302582 630.02786621 271.98605164 630.54010742 271.4637146 631.06787109 C264.66592724 637.92020563 257.61963572 644.18097386 250.0625 650.203125 C248.84921872 651.22723959 247.64023942 652.25649393 246.4375 653.29296875 C188.03675346 702.93403355 106.81145993 734.08172164 30.125 734.40625 C28.4593676 734.41677147 28.4593676 734.41677147 26.76008606 734.42750549 C23.1941824 734.44492551 19.62844466 734.45135815 16.0625 734.453125 C14.23771622 734.45413712 14.23771622 734.45413712 12.37606812 734.45516968 C-4.93320502 734.43988372 -21.83564914 734.10193722 -38.9375 731.203125 C-40.52546387 730.95369141 -40.52546387 730.95369141 -42.14550781 730.69921875 C-107.14223466 720.40949946 -168.61100946 693.01781854 -219.08349609 650.74853516 C-220.77877106 649.33543395 -222.48960331 647.94459743 -224.20703125 646.55859375 C-232.34254638 639.89676061 -239.80184973 632.54974629 -247.25 625.140625 C-247.76224121 624.63365082 -248.27448242 624.12667664 -248.80224609 623.6043396 C-255.65458063 616.80655224 -261.91534886 609.76026072 -267.9375 602.203125 C-268.96161459 600.98984372 -269.99086893 599.78086442 -271.02734375 598.578125 C-320.66840855 540.17737846 -351.81609664 458.95208493 -352.140625 382.265625 C-352.14763931 381.1552034 -352.15465363 380.0447818 -352.16188049 378.90071106 C-352.17930051 375.3348074 -352.18573315 371.76906966 -352.1875 368.203125 C-352.18817474 366.98660248 -352.18884949 365.77007996 -352.18954468 364.51669312 C-352.17425872 347.20741998 -351.83631222 330.30497586 -348.9375 313.203125 C-348.68806641 311.61516113 -348.68806641 311.61516113 -348.43359375 309.99511719 C-338.14387446 244.99839034 -310.75219354 183.52961554 -268.48291016 133.05712891 C-267.06980895 131.36185394 -265.67897243 129.65102169 -264.29296875 127.93359375 C-257.63113561 119.79807862 -250.28412129 112.33877527 -242.875 104.890625 C-242.36802582 104.37838379 -241.86105164 103.86614258 -241.3387146 103.33837891 C-234.54092724 96.48604437 -227.49463572 90.22527614 -219.9375 84.203125 C-218.72421872 83.17901041 -217.51523942 82.14975607 -216.3125 81.11328125 C-157.91175346 31.47221645 -76.68645993 0.32452836 0 0 Z " fill="#F7EFD1" transform="translate(351.9375,-0.203125)"/>
<path d="M0 0 C1.1104216 -0.00701431 2.2208432 -0.01402863 3.36491394 -0.02125549 C6.9308176 -0.03867551 10.49655534 -0.04510815 14.0625 -0.046875 C15.88728378 -0.04788712 15.88728378 -0.04788712 17.74893188 -0.04891968 C35.05820502 -0.03363372 51.96064914 0.30431278 69.0625 3.203125 C70.12114258 3.36941406 71.17978516 3.53570312 72.27050781 3.70703125 C137.26723466 13.99675054 198.73600946 41.38843146 249.20849609 83.65771484 C250.90377106 85.07081605 252.61460331 86.46165257 254.33203125 87.84765625 C262.46754638 94.50948939 269.92684973 101.85650371 277.375 109.265625 C277.88724121 109.77259918 278.39948242 110.27957336 278.92724609 110.8019104 C285.77958063 117.59969776 292.04034886 124.64598928 298.0625 132.203125 C299.08661459 133.41640628 300.11586893 134.62538558 301.15234375 135.828125 C350.79340855 194.22887154 381.94109664 275.45416507 382.265625 352.140625 C382.27263931 353.2510466 382.27965363 354.3614682 382.28688049 355.50553894 C382.30430051 359.0714426 382.31073315 362.63718034 382.3125 366.203125 C382.31351212 368.02790878 382.31351212 368.02790878 382.31454468 369.88955688 C382.29925872 387.19883002 381.96131222 404.10127414 379.0625 421.203125 C378.81306641 422.79108887 378.81306641 422.79108887 378.55859375 424.41113281 C368.26887446 489.40785966 340.87719354 550.87663446 298.60791016 601.34912109 C297.19480895 603.04439606 295.80397243 604.75522831 294.41796875 606.47265625 C287.75613561 614.60817138 280.40912129 622.06747473 273 629.515625 C272.49302582 630.02786621 271.98605164 630.54010742 271.4637146 631.06787109 C264.66592724 637.92020563 257.61963572 644.18097386 250.0625 650.203125 C248.84921872 651.22723959 247.64023942 652.25649393 246.4375 653.29296875 C188.03675346 702.93403355 106.81145993 734.08172164 30.125 734.40625 C28.4593676 734.41677147 28.4593676 734.41677147 26.76008606 734.42750549 C23.1941824 734.44492551 19.62844466 734.45135815 16.0625 734.453125 C14.23771622 734.45413712 14.23771622 734.45413712 12.37606812 734.45516968 C-4.93320502 734.43988372 -21.83564914 734.10193722 -38.9375 731.203125 C-40.52546387 730.95369141 -40.52546387 730.95369141 -42.14550781 730.69921875 C-107.14223466 720.40949946 -168.61100946 693.01781854 -219.08349609 650.74853516 C-220.77877106 649.33543395 -222.48960331 647.94459743 -224.20703125 646.55859375 C-232.34254638 639.89676061 -239.80184973 632.54974629 -247.25 625.140625 C-247.76224121 624.63365082 -248.27448242 624.12667664 -248.80224609 623.6043396 C-255.65458063 616.80655224 -261.91534886 609.76026072 -267.9375 602.203125 C-268.96161459 600.98984372 -269.99086893 599.78086442 -271.02734375 598.578125 C-320.66840855 540.17737846 -351.81609664 458.95208493 -352.140625 382.265625 C-352.14763931 381.1552034 -352.15465363 380.0447818 -352.16188049 378.90071106 C-352.17930051 375.3348074 -352.18573315 371.76906966 -352.1875 368.203125 C-352.18817474 366.98660248 -352.18884949 365.77007996 -352.18954468 364.51669312 C-352.17425872 347.20741998 -351.83631222 330.30497586 -348.9375 313.203125 C-348.68806641 311.61516113 -348.68806641 311.61516113 -348.43359375 309.99511719 C-338.14387446 244.99839034 -310.75219354 183.52961554 -268.48291016 133.05712891 C-267.06980895 131.36185394 -265.67897243 129.65102169 -264.29296875 127.93359375 C-257.63113561 119.79807862 -250.28412129 112.33877527 -242.875 104.890625 C-242.36802582 104.37838379 -241.86105164 103.86614258 -241.3387146 103.33837891 C-234.54092724 96.48604437 -227.49463572 90.22527614 -219.9375 84.203125 C-218.72421872 83.17901041 -217.51523942 82.14975607 -216.3125 81.11328125 C-157.91175346 31.47221645 -76.68645993 0.32452836 0 0 Z M-91.84570312 33.49121094 C-93.95415967 34.20879489 -96.07335394 34.8720809 -98.203125 35.5234375 C-148.11090832 51.00120335 -192.01687907 81.07305004 -229.875 116.453125 C-230.57278564 117.10240967 -231.27057129 117.75169434 -231.98950195 118.4206543 C-236.03470605 122.23808243 -239.78792057 126.19849279 -243.4074707 130.42138672 C-245.23510991 132.54969547 -247.14798492 134.59046614 -249.0625 136.640625 C-255.50088156 143.78097661 -261.20035161 151.49807497 -266.9375 159.203125 C-267.3823877 159.79609375 -267.82727539 160.3890625 -268.28564453 161 C-291.31222727 191.8100896 -309.38826436 227.20268823 -319.9375 264.203125 C-320.36783587 265.65644373 -320.79882455 267.10956932 -321.23046875 268.5625 C-346.74304716 355.80597166 -337.21381165 452.14457803 -294.22802734 532.39453125 C-284.1550316 550.5647633 -272.92924989 567.98494716 -259.9375 584.203125 C-259.20015625 585.13382813 -258.4628125 586.06453125 -257.703125 587.0234375 C-252.51341631 593.48296853 -246.99970693 599.60366902 -241.35791016 605.66503906 C-239.91648411 607.22588198 -238.49324669 608.8015961 -237.07421875 610.3828125 C-232.60561535 615.35057659 -228.13040141 620.15559585 -222.99609375 624.453125 C-220.58713541 626.50096815 -218.30562567 628.66465069 -216 630.828125 C-208.712696 637.469463 -200.84724203 643.32935019 -192.9375 649.203125 C-192.34598145 649.6465625 -191.75446289 650.09 -191.14501953 650.546875 C-160.3498068 673.56461065 -124.93788614 691.69593257 -87.9375 702.203125 C-86.46090105 702.63398967 -84.98433857 703.06497937 -83.5078125 703.49609375 C-79.76787705 704.57458868 -76.01545866 705.59691888 -72.25195312 706.58984375 C-70.7070328 706.99921504 -69.1640347 707.41590955 -67.62304688 707.83984375 C16.31877374 730.78996869 111.94179996 715.04891206 187.109375 672.86328125 C202.90995349 663.7681827 217.7931684 653.53356577 232.0625 642.203125 C232.99578125 641.46449219 233.9290625 640.72585938 234.890625 639.96484375 C241.3451617 634.77355209 247.46510089 629.26341744 253.52441406 623.62353516 C255.08525698 622.18210911 256.6609711 620.75887169 258.2421875 619.33984375 C263.20995159 614.87124035 268.01497085 610.39602641 272.3125 605.26171875 C274.36034315 602.85276041 276.52402569 600.57125067 278.6875 598.265625 C285.328838 590.978321 291.18872519 583.11286703 297.0625 575.203125 C297.5059375 574.61160645 297.949375 574.02008789 298.40625 573.41064453 C323.23036449 540.19869448 340.2692524 502.80579015 352.0625 463.203125 C352.40933838 462.0466748 352.75617676 460.89022461 353.11352539 459.69873047 C355.33617436 452.13100364 357.17070709 444.5790935 358.625 436.828125 C358.83479492 435.7232373 359.04458984 434.61834961 359.26074219 433.47998047 C361.35819119 422.11852905 362.88322246 410.69446158 364.0625 399.203125 C364.15966309 398.29143555 364.25682617 397.37974609 364.35693359 396.44042969 C365.19731603 387.69747758 365.21978631 378.97607825 365.1875 370.203125 C365.18561676 369.42900269 365.18373352 368.65488037 365.18179321 367.8572998 C364.95561586 288.50896377 339.62468022 212.62074838 290.0625 150.203125 C288.95455078 148.80320313 288.95455078 148.80320313 287.82421875 147.375 C282.63292709 140.9204633 277.12279244 134.80052411 271.48291016 128.74121094 C270.04148411 127.18036802 268.61824669 125.6046539 267.19921875 124.0234375 C262.73061535 119.05567341 258.25540141 114.25065415 253.12109375 109.953125 C250.71213541 107.90528185 248.43062567 105.74159931 246.125 103.578125 C238.837696 96.936787 230.97224203 91.07689981 223.0625 85.203125 C222.47098145 84.7596875 221.87946289 84.31625 221.27001953 83.859375 C188.05806948 59.03526051 150.66516515 41.9963726 111.0625 30.203125 C109.9060498 29.85628662 108.74959961 29.50944824 107.55810547 29.15209961 C99.99044634 26.92947052 92.43853198 25.09436063 84.6875 23.640625 C83.02473022 23.32593262 83.02473022 23.32593262 81.32836914 23.00488281 C73.74461729 21.60831476 66.14940891 20.42620126 58.5 19.453125 C57.59910645 19.33767334 56.69821289 19.22222168 55.77001953 19.10327148 C6.55053464 13.25773749 -44.89460733 17.18211152 -91.84570312 33.49121094 Z " fill="#94A794" transform="translate(351.9375,-0.203125)"/>
<path d="M0 0 C14.99452337 12.41733966 25.6884715 31.88605328 27.75 51.28125 C29.02971539 75.80083109 23.00609477 96.63146766 7.3125 115.65625 C-2.30765391 126.00453482 -14.14056457 133.14439794 -27.4375 137.65625 C-28.54158203 138.03257568 -28.54158203 138.03257568 -29.66796875 138.41650391 C-48.65532251 144.49839066 -70.03318132 142.22183864 -87.75 133.46875 C-93.77785932 130.34888321 -99.11702468 126.73795859 -104.25 122.28125 C-105.7659375 121.1365625 -105.7659375 121.1365625 -107.3125 119.96875 C-117.45632221 110.68823181 -124.24187219 99.01132058 -128.625 86.09375 C-128.87588379 85.35769531 -129.12676758 84.62164062 -129.38525391 83.86328125 C-135.43089073 64.98909798 -133.23448001 43.61261776 -124.5625 25.96875 C-114.14365127 5.91747291 -97.77526581 -8.47967972 -76.25 -15.71875 C-49.1111953 -24.0381858 -22.13006329 -16.90490946 0 0 Z " fill="#79CCB2" transform="translate(424.25,313.71875)"/>
<path d="M0 0 C10.40922052 6.23183597 16.68268877 15.45293368 20 27 C21.23575119 38.35590304 19.38290722 48.42563916 13 58 C13.27701559 62.44195623 14.39899555 65.04522546 17.1015625 68.5234375 C21.51658354 74.55497312 24.96889892 80.98580962 28.375 87.625 C28.70082062 88.25893677 29.02664124 88.89287354 29.36233521 89.54602051 C59.88641 149.26480716 63.78823005 217.44234977 44.02636719 281.13818359 C29.34275926 326.4926922 0.48589405 368.43224935 -37 398 C-37.96421875 398.78117187 -38.9284375 399.56234375 -39.921875 400.3671875 C-62.84928495 418.58109439 -88.55090412 431.16056215 -116 441 C-117.08595459 441.40557129 -117.08595459 441.40557129 -118.19384766 441.81933594 C-127.9833489 445.46983007 -138.14350971 447.3220733 -148.375 449.25 C-149.07167786 449.38128296 -149.76835571 449.51256592 -150.48614502 449.64782715 C-202.87474537 459.42118603 -258.56543105 451.24580335 -306 427 C-303.05102389 424.65186914 -300.08407757 422.88343193 -296.6875 421.25 C-295.33205078 420.57710937 -295.33205078 420.57710937 -293.94921875 419.890625 C-286.81974228 417.73761753 -279.7983078 421.36011052 -273.125 423.8125 C-263.4977848 427.24368174 -254.01892001 430.01906465 -244 432 C-243.14019531 432.17515137 -242.28039062 432.35030273 -241.39453125 432.53076172 C-229.60336124 434.91103141 -218.0516998 436.79849248 -206 437 C-204.64237549 437.02271973 -204.64237549 437.02271973 -203.25732422 437.04589844 C-196.16960536 437.14112913 -189.08730895 437.11592258 -182 437 C-181.21447754 436.98743164 -180.42895508 436.97486328 -179.61962891 436.96191406 C-162.19043501 436.57626019 -144.62057888 433.18546582 -128 428 C-127.18547363 427.74798828 -126.37094727 427.49597656 -125.53173828 427.23632812 C-87.57223739 415.2760124 -55.73599583 395.19224325 -27 368 C-26.319375 367.36191406 -25.63875 366.72382812 -24.9375 366.06640625 C9.01534345 333.29248098 29.86418979 285.49884997 37.75 239.625 C37.86561279 238.96113281 37.98122559 238.29726563 38.1003418 237.61328125 C40.03007256 225.53964306 40.23789579 213.26514176 40.25 201.0625 C40.25100708 200.34722137 40.25201416 199.63194275 40.25305176 198.89498901 C40.2409469 186.0739849 39.28258826 173.6345023 37 161 C36.87141602 160.24895996 36.74283203 159.49791992 36.61035156 158.72412109 C31.11036032 127.46653728 17.80897912 97.15304626 0 71 C-0.66386719 71.20496094 -1.32773437 71.40992188 -2.01171875 71.62109375 C-2.89472656 71.89050781 -3.77773438 72.15992188 -4.6875 72.4375 C-5.55761719 72.70433594 -6.42773438 72.97117187 -7.32421875 73.24609375 C-18.2580549 76.32672204 -28.64780542 75.86825195 -39 71 C-48.93368109 64.83531926 -56.28789836 56.14586327 -59.25 44.75 C-61.32725255 33.7405615 -60.422455 23.12628269 -54.421875 13.45703125 C-41.09645619 -4.46025485 -20.42252737 -10.54423968 0 0 Z " fill="#7A9297" transform="translate(566,172)"/>
<path d="M0 0 C-2.53678908 2.63244755 -5.06881105 4.41948345 -8.25 6.25 C-9.16265625 6.79140625 -10.0753125 7.3328125 -11.015625 7.890625 C-17.64275564 10.35411335 -24.34943308 6.98994991 -30.6875 4.75 C-44.01806571 0.18809358 -57.48601639 -3.35591664 -71.375 -5.75 C-72.03910889 -5.86569336 -72.70321777 -5.98138672 -73.38745117 -6.10058594 C-85.46102997 -8.02954426 -97.73500563 -8.23789594 -109.9375 -8.25 C-110.65277863 -8.25100708 -111.36805725 -8.25201416 -112.10501099 -8.25305176 C-124.9260151 -8.2409469 -137.3654977 -7.28258826 -150 -5 C-150.75104004 -4.87141602 -151.50208008 -4.74283203 -152.27587891 -4.61035156 C-210.21344279 5.58416942 -264.42479752 41.10927215 -298.45019531 88.77294922 C-303.24992445 95.67010252 -307.69021993 102.78885429 -312 110 C-312.56412598 110.93996826 -312.56412598 110.93996826 -313.13964844 111.89892578 C-327.34652091 135.95723047 -335.34461438 163.61469407 -340 191 C-340.11859375 191.67321289 -340.2371875 192.34642578 -340.359375 193.04003906 C-342.8730605 207.87527225 -342.27504869 223.01309492 -342 238 C-341.98598145 238.87785156 -341.97196289 239.75570313 -341.95751953 240.66015625 C-341.59755716 257.96803759 -338.14872908 275.49717059 -333 292 C-332.62198242 293.22178955 -332.62198242 293.22178955 -332.23632812 294.46826172 C-325.90209806 314.57176209 -317.32533137 334.17456647 -306 352 C-304.54096742 351.69078116 -303.08279278 351.37751201 -301.625 351.0625 C-300.81289063 350.88847656 -300.00078125 350.71445312 -299.1640625 350.53515625 C-296.970537 350.07669307 -296.970537 350.07669307 -295 349 C-282.22771792 347.84338972 -270.85867748 350.02847037 -260.70703125 358.40625 C-253.20100536 365.41416433 -247.76069994 374.00956796 -246.62890625 384.41015625 C-246.40214053 396.88227058 -249.34737473 407.7323597 -258 417 C-266.38160483 425.48044451 -276.02099103 428.91379365 -287.8125 429.375 C-299.65612754 429.11884012 -308.46162137 424.46524241 -316.74609375 416.2734375 C-324.87331242 407.39632584 -327.5322614 396.98290533 -327.3203125 385.12890625 C-326.64442918 378.52668018 -324.64266514 371.95089571 -320.6875 366.5625 C-318.77307797 364.20633126 -318.77307797 364.20633126 -319.11328125 361.81640625 C-320.33228626 357.94458857 -322.36210857 354.80587482 -324.5 351.375 C-357.06407041 297.34957839 -366.82995675 228.9109456 -351.8125 167.75 C-341.39649057 127.74393099 -323.13396818 92.14287484 -296 61 C-295.40832031 60.29617187 -294.81664062 59.59234375 -294.20703125 58.8671875 C-285.46946683 48.55470406 -275.66189387 39.28760658 -265 31 C-263.52660156 29.81857422 -263.52660156 29.81857422 -262.0234375 28.61328125 C-188.1702704 -30.16472725 -84.8687813 -40.15446105 0 0 Z " fill="#7A9297" transform="translate(480,149)"/>
<path d="M0 0 C10.40922052 6.23183597 16.68268877 15.45293368 20 27 C21.12923248 37.37705214 19.46971692 45.64507134 15 55 C14.54625 56.02738281 14.0925 57.05476563 13.625 58.11328125 C9.30564611 65.78636424 0.14767968 70.98550609 -8.07421875 73.6796875 C-18.6964132 76.46396109 -29.05543017 75.67656119 -39 71 C-48.93368109 64.83531926 -56.28789836 56.14586327 -59.25 44.75 C-61.32725255 33.7405615 -60.422455 23.12628269 -54.421875 13.45703125 C-41.09645619 -4.46025485 -20.42252737 -10.54423968 0 0 Z " fill="#79CCB2" transform="translate(566,172)"/>
<path d="M0 0 C9.10372824 6.41399035 14.57219894 14.9517792 17.625 25.578125 C18.93212957 37.58995778 16.74959789 48.08071187 9.75 58.015625 C2.57116947 66.71446302 -6.1135072 72.11929023 -17.375 73.578125 C-28.01679638 74.55227002 -37.56184546 72.72716707 -46.25 66.265625 C-56.08706803 57.9050066 -61.44932145 48.69046191 -62.6328125 35.76171875 C-63.0330167 25.52983147 -60.3284602 14.39683477 -53.375 6.578125 C-37.53488041 -7.71603697 -18.87793915 -11.3019241 0 0 Z " fill="#79CCB2" transform="translate(215.375,504.421875)"/>
</svg>
